<svg width="128" height="128" viewBox="0 0 128 128" xmlns="http://www.w3.org/2000/svg">
  <defs>
    <linearGradient id="bgGradient" x1="0%" y1="0%" x2="100%" y2="100%">
      <stop offset="0%" style="stop-color:#2d3748;stop-opacity:1" />
      <stop offset="100%" style="stop-color:#1a202c;stop-opacity:1" />
    </linearGradient>
    <linearGradient id="githubGradient" x1="0%" y1="0%" x2="100%" y2="100%">
      <stop offset="0%" style="stop-color:#f7fafc;stop-opacity:1" />
      <stop offset="100%" style="stop-color:#e2e8f0;stop-opacity:1" />
    </linearGradient>
    <linearGradient id="authGradient" x1="0%" y1="0%" x2="100%" y2="100%">
      <stop offset="0%" style="stop-color:#48bb78;stop-opacity:1" />
      <stop offset="100%" style="stop-color:#38a169;stop-opacity:1" />
    </linearGradient>
  </defs>
  
  <!-- Background circle -->
  <circle cx="64" cy="64" r="62" fill="url(#bgGradient)" stroke="#4a5568" stroke-width="2"/>
  
  <!-- GitHub logo -->
  <path d="M64 16c-26.5 0-48 21.5-48 48 0 21.2 13.8 39.2 32.9 45.5 2.4.4 3.3-1 3.3-2.3v-8.1c-13.4 2.9-16.2-6.5-16.2-6.5-2.2-5.6-5.4-7.1-5.4-7.1-4.4-3 .3-3 .3-3 4.9.4 7.5 5 7.5 5 4.3 7.4 11.3 5.3 14.1 4 .4-3.1 1.7-5.3 3.1-6.5-10.7-1.2-22-5.4-22-23.9 0-5.3 1.9-9.6 5-13-.5-1.2-2.2-6.1.5-12.6 0 0 4.1-1.3 13.4 5 3.9-1.1 8.1-1.6 12.2-1.6s8.3.5 12.2 1.6c9.3-6.3 13.4-5 13.4-5 2.7 6.5.9 11.4.4 12.6 3.1 3.4 5 7.7 5 13 0 18.6-11.3 22.6-22.1 23.8 1.7 1.5 3.3 4.5 3.3 9v13.4c0 1.3.9 2.7 3.3 2.3 19.1-6.4 32.9-24.3 32.9-45.5 0-26.5-21.5-48-48-48z" 
        fill="url(#githubGradient)" stroke="#e2e8f0" stroke-width="1"/>
  
  <!-- Authentication shield -->
  <g transform="translate(88, 88)">
    <circle cx="12" cy="12" r="14" fill="url(#authGradient)" stroke="#f7fafc" stroke-width="2"/>
    <path d="M8 12h8v6c0 2.2-1.8 4-4 4s-4-1.8-4-4v-6z" fill="#f7fafc"/>
    <path d="M10 12v-2c0-1.1.9-2 2-2s2 .9 2 2v2" stroke="#f7fafc" stroke-width="2" fill="none" stroke-linecap="round"/>
    <circle cx="12" cy="15" r="1" fill="url(#authGradient)"/>
  </g>
  
  <!-- VS Code corner accent -->
  <rect x="4" y="4" width="16" height="16" rx="3" fill="#007ACC" opacity="0.9"/>
  <text x="12" y="15" font-family="monospace" font-size="10" fill="white" text-anchor="middle" font-weight="bold">VS</text>
</svg>